# xmcd CD database file
#
# Track frame offsets:
#	150
#	70549
#	99907
#	132758
#	165431
#	191237
#	230340
#	250184
#	271805
#
# Disc length: 4226 seconds
#
# Revision: 0
# Processed by: cddbd v1.5.1PL0 Copyright (c) Steve Scherf et al.
# Submitted via: CDex 1.51
#
DISCID=6c108009
DTITLE=Various Artist - Shibuya Jazz Classics - Toshio Matsuura Collection (East Wind)
DYEAR=1900
DGENRE=Jazz
TTITLE0=Sadao Watanabe - Vichakani
TTITLE1=Oliver Nelson - Mission Accomplished
TTITLE2=Andrew Hill - Blue Black
TTITLE3=Junior Mance - That Mellow Feeling
TTITLE4=Sheila Jordan - Pearlie's Swine
TTITLE5=Kochi - Caribbean Blue
TTITLE6=Terumasa Hino - Hogiuta
TTITLE7=Ronnie Mathews - K's Waltz
TTITLE8=Mikio Masuda - Prayer
EXTD=
EXTT0=
EXTT1=
EXTT2=
EXTT3=
EXTT4=
EXTT5=
EXTT6=
EXTT7=
EXTT8=
PLAYORDER=
